<svg width="259" height="188" viewBox="0 0 259 188" fill="none" xmlns="http://www.w3.org/2000/svg">
<g filter="url(#filter0_i_1_13)">
<rect x="0.298218" y="0.642883" width="258.648" height="187.064" rx="33.4042" fill="url(#paint0_linear_1_13)"/>
</g>
<path d="M9.00239e-06 65.3874H87.9529C93.5216 48.096 109.18 12.4662 127.261 8.27814C133.977 10.6577 149.667 19.2241 158.708 34.4532M0 125.352H87.9529C87.9529 155.049 114.159 176.75 127.261 183.889C149.274 176.655 166.243 141.85 171.975 125.352H258.945M258.945 79.6647H171.975C168.044 72.2087 162.541 55.0125 171.975 45.875" stroke="url(#paint1_linear_1_13)" stroke-width="2.86322"/>
<defs>
<filter id="filter0_i_1_13" x="0.298218" y="0.642883" width="258.648" height="187.064" filterUnits="userSpaceOnUse" color-interpolation-filters="sRGB">
<feFlood flood-opacity="0" result="BackgroundImageFix"/>
<feBlend mode="normal" in="SourceGraphic" in2="BackgroundImageFix" result="shape"/>
<feColorMatrix in="SourceAlpha" type="matrix" values="0 0 0 0 0 0 0 0 0 0 0 0 0 0 0 0 0 0 127 0" result="hardAlpha"/>
<feOffset dx="-2.86322" dy="-2.86322"/>
<feComposite in2="hardAlpha" operator="arithmetic" k2="-1" k3="1"/>
<feColorMatrix type="matrix" values="0 0 0 0 0 0 0 0 0 0 0 0 0 0 0 0 0 0 0.25 0"/>
<feBlend mode="normal" in2="shape" result="effect1_innerShadow_1_13"/>
</filter>
<linearGradient id="paint0_linear_1_13" x1="0.298218" y1="0.642883" x2="234.022" y2="185.2" gradientUnits="userSpaceOnUse">
<stop stop-color="#ABABAB"/>
<stop offset="0.3125" stop-color="white"/>
<stop offset="0.630208" stop-color="#BDBDBD"/>
<stop offset="1" stop-color="#5E5E5E"/>
</linearGradient>
<linearGradient id="paint1_linear_1_13" x1="9.73734" y1="11.1414" x2="243.206" y2="176.685" gradientUnits="userSpaceOnUse">
<stop stop-color="#7D7D7D"/>
<stop offset="0.494792" stop-color="white"/>
<stop offset="1" stop-color="#1C1C1C"/>
</linearGradient>
</defs>
</svg>
