<svg width="110" height="36" viewBox="0 0 110 36" fill="none" xmlns="http://www.w3.org/2000/svg">
<path d="M0 36L1.06578 30.9474H9.63153C16.6578 30.9474 17.6052 30.0395 18.7894 24.8289C19.2631 22.7368 19.6578 21.9868 20.6446 20.4868C20.8815 20.1316 20.842 19.8553 20.5262 19.6974C20.1315 19.5 19.8552 19.9342 19.7762 20.0526C17.2499 23.8421 12.3947 28.1053 7.89469 28.1053C3.15788 28.1053 1.02631 25.0263 2.40788 18.6316L4.77629 7.57895H11.7236L9.671 17.2105C8.76311 21.4342 9.86837 22.5789 11.5263 22.5789C15.5525 22.5789 21.0394 14.5658 22.1446 9.11842L22.4604 7.57895H29.4077L26.1709 22.7368C24.0788 32.6842 21.8288 36 12.0394 36H0Z" fill="black"/>
<path d="M29.4981 18.4737C30.8402 12.2368 36.2086 6.94737 43.077 6.94737C46.2743 6.94737 48.2085 8.44737 49.2743 9.67105C49.4717 9.9079 49.669 10.2632 50.0638 10.0658C50.419 9.9079 50.498 9.55263 50.3401 9.19737C49.9848 8.44737 49.7874 8.17105 49.9453 7.57895H56.8927L54.5637 18.6316C53.419 24.1579 53.0243 26.25 53.7348 28.4211H46.7085C45.998 25.7368 47.6559 23.9211 48.2875 22.5395C48.4454 22.1842 48.4454 21.9079 48.169 21.7895C47.8927 21.6711 47.5769 21.8684 47.419 22.1053C44.8533 26.1711 41.4191 29.0526 36.8796 29.0526C31.4718 29.0526 28.1165 24.9079 29.4981 18.4737ZM36.3665 18.7105C35.6165 22.1053 37.4717 23.3684 39.7612 23.3684C43.4322 23.3684 46.9848 20.2105 48.4454 14.6053C47.1822 13.1053 45.8401 12.6316 43.7085 12.6316C39.9191 12.6316 37.2349 14.8026 36.3665 18.7105Z" fill="black"/>
<path d="M57.4962 5.36842L58.6409 0C67.9567 0 68.4698 0.197368 67.4435 4.57895L63.8514 20.0526C63.1804 22.9737 63.2988 23.0526 65.5882 23.0526H67.6409L66.4961 28.4211H60.6541C56.4699 28.4211 55.2462 27.2763 56.3515 22.5789L59.8646 7.5C60.3778 5.36842 60.9699 5.36842 57.4962 5.36842Z" fill="black"/>
<path d="M68.4353 18.4737C69.7774 12.2368 75.1458 6.94737 82.0141 6.94737C85.2115 6.94737 87.1457 8.44737 88.2115 9.67105C88.4089 9.9079 88.6062 10.2632 89.0009 10.0658C89.3562 9.9079 89.4352 9.55263 89.2773 9.19737C88.922 8.44737 88.7246 8.17105 88.8825 7.57895H95.8299L93.5009 18.6316C92.3562 24.1579 91.9615 26.25 92.672 28.4211H85.6457C84.9352 25.7368 86.5931 23.9211 87.2246 22.5395C87.3825 22.1842 87.3825 21.9079 87.1062 21.7895C86.8299 21.6711 86.5141 21.8684 86.3562 22.1053C83.7905 26.1711 80.3563 29.0526 75.8168 29.0526C70.409 29.0526 67.0537 24.9079 68.4353 18.4737ZM75.3037 18.7105C74.5537 22.1053 76.4089 23.3684 78.6984 23.3684C82.3694 23.3684 85.922 20.2105 87.3825 14.6053C86.1194 13.1053 84.7773 12.6316 82.6457 12.6316C78.8563 12.6316 76.1721 14.8026 75.3037 18.7105Z" fill="black"/>
<path d="M101.893 12.8138C102.156 12.2159 103.004 12.2159 103.267 12.8138L103.73 13.8681C103.891 14.2361 104.314 14.4113 104.689 14.2653L105.762 13.8472C106.37 13.6101 106.97 14.2099 106.733 14.8184L106.315 15.8913C106.169 16.2657 106.344 16.6887 106.712 16.8503L107.766 17.3133C108.364 17.5759 108.364 18.4241 107.766 18.6867L106.712 19.1497C106.344 19.3113 106.169 19.7343 106.315 20.1087L106.733 21.1816C106.97 21.7901 106.37 22.3899 105.762 22.1528L104.689 21.7347C104.314 21.5887 103.891 21.7639 103.73 22.1319L103.267 23.1862C103.004 23.7841 102.156 23.7841 101.893 23.1862L101.43 22.1319C101.269 21.7639 100.846 21.5887 100.471 21.7347L99.3984 22.1528C98.79 22.3899 98.1901 21.7901 98.4273 21.1816L98.8454 20.1087C98.9914 19.7343 98.8162 19.3113 98.4482 19.1497L97.3938 18.6867C96.7959 18.4241 96.7959 17.5759 97.3938 17.3133L98.4482 16.8503C98.8162 16.6887 98.9914 16.2657 98.8454 15.8913L98.4273 14.8184C98.1901 14.2099 98.79 13.6101 99.3984 13.8472L100.471 14.2653C100.846 14.4113 101.269 14.2361 101.43 13.8681L101.893 12.8138Z" fill="#FC4625"/>
</svg>
